<svg viewBox="0 0 33 33" fill="none" xmlns="http://www.w3.org/2000/svg">
    <path fill-rule="evenodd" clip-rule="evenodd"
          d="M32.9528 3.53571C32.9849 3.14368 33.0007 2.75049 33 2.35714L33 2.16372e-07L28.875 2.13894e-07C25.8145 -0.000509858 22.8364 0.991771 20.3879 2.82786C17.9393 4.66396 16.1524 7.24478 15.2955 10.1829C13.9746 8.47902 12.2811 7.10028 10.3448 6.15236C8.40852 5.20443 6.28087 4.7125 4.125 4.71429L-2.83196e-09 4.71429L-4.24794e-09 7.07143C-6.50119e-09 10.8223 1.49005 14.4196 4.14234 17.0719C6.79464 19.7242 10.3919 21.2143 14.1428 21.2143L14.7321 21.2143L14.7321 31.2321C14.7321 31.701 14.9184 32.1507 15.2499 32.4822C15.5815 32.8137 16.0311 33 16.5 33C16.9689 33 17.4185 32.8137 17.7501 32.4822C18.0816 32.1507 18.2678 31.701 18.2678 31.2321L18.2678 16.5L18.8571 16.5C22.4044 16.5005 25.8223 15.168 28.4332 12.7667C31.0441 10.3654 32.6572 7.07063 32.9528 3.53571ZM18.3315 12.9643C18.6214 10.371 19.8571 7.97554 21.8023 6.23608C23.7474 4.49662 26.2655 3.53521 28.875 3.53571L29.4006 3.53571C29.1107 6.12903 27.875 8.52446 25.9298 10.2639C23.9847 12.0034 21.4666 12.9648 18.8571 12.9643L18.3315 12.9643ZM4.125 8.25C6.73446 8.2495 9.25255 9.21091 11.1977 10.9504C13.1428 12.6898 14.3785 15.0853 14.6685 17.6786L14.1428 17.6786C11.5334 17.6791 9.0153 16.7177 7.07015 14.9782C5.125 13.2387 3.8893 10.8433 3.59935 8.25L4.125 8.25Z"
          fill="currentColor"/>
</svg>
